<?xml version="1.0" encoding="UTF-8"?>
<svg width="752pt" height="752pt" version="1.1" viewBox="0 0 752 752" xmlns="http://www.w3.org/2000/svg">
 <path d="m376 162.89c-117.45 0-213.11 95.664-213.11 213.11 0 117.45 95.664 213.11 213.11 213.11 117.45 0 213.11-95.664 213.11-213.11-0.003907-117.45-95.668-213.11-213.12-213.11zm0 378.86c-83.352 0-152.49-62.039-163.86-142.07h97.086c9.9453 27.469 35.992 47.359 66.773 47.359s57.305-19.891 66.773-47.359h97.086c-11.363 80.035-80.508 142.07-163.86 142.07zm-23.676-165.75c0-13.262 10.418-23.68 23.68-23.68 13.262 0 23.68 10.418 23.68 23.68s-10.418 23.68-23.68 23.68c-13.262 0-23.68-10.418-23.68-23.68zm90.453-23.676c-9.9453-27.469-35.992-47.359-66.773-47.359s-57.305 19.891-66.773 47.359h-97.09c11.367-80.035 80.508-142.07 163.86-142.07s152.49 62.039 163.86 142.07z"/>
</svg>
